<svg data-v-d3f97b9e="" xmlns="http://www.w3.org/2000/svg" viewBox="0 0 598 90"><!----><!----><!----><g data-v-d3f97b9e="" id="721f3c90-627c-448d-864b-be8aa1f1c19f" fill="white" transform="matrix(5.414169788360596,0,0,5.414169788360596,103.5072250366211,3.1988024711608887)"><path d="M6.75 3.35L8.39 3.35L8.39 3.35Q7.95 3.82 7.41 4.40L7.41 4.40L7.41 4.40Q6.86 4.98 6.27 5.59L6.27 5.59L6.27 5.59Q5.67 6.20 5.08 6.79L5.08 6.79L5.08 6.79Q4.49 7.38 3.98 7.88L3.98 7.88L3.98 7.88Q4.58 8.30 5.25 8.92L5.25 8.92L5.25 8.92Q5.92 9.53 6.57 10.23L6.57 10.23L6.57 10.23Q7.21 10.93 7.78 11.66L7.78 11.66L7.78 11.66Q8.34 12.39 8.72 13.05L8.72 13.05L7.13 13.05L7.13 13.05Q6.71 12.39 6.16 11.72L6.16 11.72L6.16 11.72Q5.61 11.06 5.00 10.45L5.00 10.45L5.00 10.45Q4.40 9.84 3.77 9.32L3.77 9.32L3.77 9.32Q3.15 8.81 2.56 8.44L2.56 8.44L2.56 13.05L1.20 13.05L1.20 3.35L2.56 3.35L2.56 7.63L2.56 7.63Q3.05 7.17 3.64 6.59L3.64 6.59L3.64 6.59Q4.23 6.01 4.80 5.42L4.80 5.42L4.80 5.42Q5.38 4.83 5.89 4.29L5.89 4.29L5.89 4.29Q6.40 3.75 6.75 3.35L6.75 3.35ZM12.39 12.11L12.39 12.11L12.39 12.11Q12.85 12.11 13.21 12.09L13.21 12.09L13.21 12.09Q13.57 12.07 13.80 12.01L13.80 12.01L13.80 9.84L13.80 9.84Q13.66 9.77 13.35 9.72L13.35 9.72L13.35 9.72Q13.03 9.67 12.59 9.67L12.59 9.67L12.59 9.67Q12.29 9.67 11.96 9.72L11.96 9.72L11.96 9.72Q11.63 9.76 11.36 9.89L11.36 9.89L11.36 9.89Q11.09 10.02 10.91 10.25L10.91 10.25L10.91 10.25Q10.72 10.49 10.72 10.86L10.72 10.86L10.72 10.86Q10.72 11.56 11.17 11.84L11.17 11.84L11.17 11.84Q11.62 12.11 12.39 12.11ZM12.28 5.59L12.28 5.59L12.28 5.59Q13.06 5.59 13.60 5.79L13.60 5.79L13.60 5.79Q14.14 5.99 14.47 6.36L14.47 6.36L14.47 6.36Q14.80 6.73 14.94 7.25L14.94 7.25L14.94 7.25Q15.08 7.76 15.08 8.37L15.08 8.37L15.08 12.92L15.08 12.92Q14.91 12.95 14.61 13.00L14.61 13.00L14.61 13.00Q14.31 13.05 13.93 13.09L13.93 13.09L13.93 13.09Q13.55 13.13 13.11 13.17L13.11 13.17L13.11 13.17Q12.67 13.20 12.24 13.20L12.24 13.20L12.24 13.20Q11.62 13.20 11.10 13.08L11.10 13.08L11.10 13.08Q10.58 12.95 10.21 12.68L10.21 12.68L10.21 12.68Q9.83 12.40 9.62 11.96L9.62 11.96L9.62 11.96Q9.41 11.51 9.41 10.88L9.41 10.88L9.41 10.88Q9.41 10.28 9.65 9.84L9.65 9.84L9.65 9.84Q9.90 9.41 10.32 9.14L10.32 9.14L10.32 9.14Q10.74 8.88 11.30 8.75L11.30 8.75L11.30 8.75Q11.86 8.62 12.47 8.62L12.47 8.62L12.47 8.62Q12.67 8.62 12.88 8.64L12.88 8.64L12.88 8.64Q13.09 8.67 13.28 8.70L13.28 8.70L13.28 8.70Q13.47 8.74 13.61 8.76L13.61 8.76L13.61 8.76Q13.75 8.79 13.80 8.81L13.80 8.81L13.80 8.44L13.80 8.44Q13.80 8.12 13.73 7.80L13.73 7.80L13.73 7.80Q13.66 7.49 13.48 7.25L13.48 7.25L13.48 7.25Q13.30 7 12.99 6.85L12.99 6.85L12.99 6.85Q12.67 6.71 12.17 6.71L12.17 6.71L12.17 6.71Q11.52 6.71 11.04 6.80L11.04 6.80L11.04 6.80Q10.56 6.89 10.32 6.99L10.32 6.99L10.16 5.91L10.16 5.91Q10.42 5.80 11.00 5.69L11.00 5.69L11.00 5.69Q11.59 5.59 12.28 5.59ZM22.06 5.77L22.06 6.75L22.06 6.75Q21.77 7.07 21.29 7.66L21.29 7.66L21.29 7.66Q20.80 8.25 20.25 8.96L20.25 8.96L20.25 8.96Q19.70 9.67 19.14 10.46L19.14 10.46L19.14 10.46Q18.59 11.24 18.17 11.96L18.17 11.96L22.18 11.96L22.18 13.05L16.62 13.05L16.62 12.18L16.62 12.18Q16.95 11.56 17.44 10.82L17.44 10.82L17.44 10.82Q17.93 10.08 18.47 9.34L18.47 9.34L18.47 9.34Q19.01 8.61 19.52 7.96L19.52 7.96L19.52 7.96Q20.03 7.31 20.41 6.86L20.41 6.86L16.81 6.86L16.81 5.77L22.06 5.77ZM26.29 12.11L26.29 12.11L26.29 12.11Q26.75 12.11 27.11 12.09L27.11 12.09L27.11 12.09Q27.47 12.07 27.71 12.01L27.71 12.01L27.71 9.84L27.71 9.84Q27.57 9.77 27.25 9.72L27.25 9.72L27.25 9.72Q26.94 9.67 26.49 9.67L26.49 9.67L26.49 9.67Q26.19 9.67 25.87 9.72L25.87 9.72L25.87 9.72Q25.54 9.76 25.26 9.89L25.26 9.89L25.26 9.89Q24.99 10.02 24.81 10.25L24.81 10.25L24.81 10.25Q24.63 10.49 24.63 10.86L24.63 10.86L24.63 10.86Q24.63 11.56 25.07 11.84L25.07 11.84L25.07 11.84Q25.52 12.11 26.29 12.11ZM26.18 5.59L26.18 5.59L26.18 5.59Q26.96 5.59 27.50 5.79L27.50 5.79L27.50 5.79Q28.04 5.99 28.37 6.36L28.37 6.36L28.37 6.36Q28.70 6.73 28.84 7.25L28.84 7.25L28.84 7.25Q28.98 7.76 28.98 8.37L28.98 8.37L28.98 12.92L28.98 12.92Q28.81 12.95 28.51 13.00L28.51 13.00L28.51 13.00Q28.21 13.05 27.83 13.09L27.83 13.09L27.83 13.09Q27.45 13.13 27.01 13.17L27.01 13.17L27.01 13.17Q26.57 13.20 26.14 13.20L26.14 13.20L26.14 13.20Q25.52 13.20 25.00 13.08L25.00 13.08L25.00 13.08Q24.49 12.95 24.11 12.68L24.11 12.68L24.11 12.68Q23.73 12.40 23.52 11.96L23.52 11.96L23.52 11.96Q23.31 11.51 23.31 10.88L23.31 10.88L23.31 10.88Q23.31 10.28 23.56 9.84L23.56 9.84L23.56 9.84Q23.80 9.41 24.22 9.14L24.22 9.14L24.22 9.14Q24.64 8.88 25.20 8.75L25.20 8.75L25.20 8.75Q25.76 8.62 26.38 8.62L26.38 8.62L26.38 8.62Q26.57 8.62 26.78 8.64L26.78 8.64L26.78 8.64Q26.99 8.67 27.18 8.70L27.18 8.70L27.18 8.70Q27.37 8.74 27.51 8.76L27.51 8.76L27.51 8.76Q27.65 8.79 27.71 8.81L27.71 8.81L27.71 8.44L27.71 8.44Q27.71 8.12 27.64 7.80L27.64 7.80L27.64 7.80Q27.57 7.49 27.38 7.25L27.38 7.25L27.38 7.25Q27.20 7 26.89 6.85L26.89 6.85L26.89 6.85Q26.57 6.71 26.07 6.71L26.07 6.71L26.07 6.71Q25.42 6.71 24.94 6.80L24.94 6.80L24.94 6.80Q24.46 6.89 24.22 6.99L24.22 6.99L24.07 5.91L24.07 5.91Q24.32 5.80 24.91 5.69L24.91 5.69L24.91 5.69Q25.49 5.59 26.18 5.59ZM33.77 9.04L33.77 9.04L33.77 9.04Q34.19 9.37 34.66 9.84L34.66 9.84L34.66 9.84Q35.13 10.32 35.58 10.87L35.58 10.87L35.58 10.87Q36.04 11.42 36.44 11.99L36.44 11.99L36.44 11.99Q36.85 12.56 37.13 13.05L37.13 13.05L35.60 13.05L35.60 13.05Q35.31 12.56 34.92 12.05L34.92 12.05L34.92 12.05Q34.54 11.54 34.12 11.07L34.12 11.07L34.12 11.07Q33.70 10.60 33.26 10.21L33.26 10.21L33.26 10.21Q32.83 9.81 32.44 9.55L32.44 9.55L32.44 13.05L31.14 13.05L31.14 2.41L32.44 2.18L32.44 8.82L32.44 8.82Q32.77 8.48 33.18 8.08L33.18 8.08L33.18 8.08Q33.59 7.67 33.98 7.25L33.98 7.25L33.98 7.25Q34.37 6.83 34.72 6.45L34.72 6.45L34.72 6.45Q35.07 6.06 35.32 5.77L35.32 5.77L36.85 5.77L36.85 5.77Q36.53 6.12 36.15 6.54L36.15 6.54L36.15 6.54Q35.77 6.96 35.36 7.38L35.36 7.38L35.36 7.38Q34.96 7.81 34.55 8.24L34.55 8.24L34.55 8.24Q34.13 8.67 33.77 9.04ZM44.87 9.41L44.87 9.41L44.87 9.41Q44.87 10.28 44.62 10.98L44.62 10.98L44.62 10.98Q44.37 11.68 43.91 12.18L43.91 12.18L43.91 12.18Q43.46 12.68 42.83 12.96L42.83 12.96L42.83 12.96Q42.20 13.23 41.45 13.23L41.45 13.23L41.45 13.23Q40.71 13.23 40.08 12.96L40.08 12.96L40.08 12.96Q39.45 12.68 39.00 12.18L39.00 12.18L39.00 12.18Q38.54 11.68 38.29 10.98L38.29 10.98L38.29 10.98Q38.04 10.28 38.04 9.41L38.04 9.41L38.04 9.41Q38.04 8.55 38.29 7.85L38.29 7.85L38.29 7.85Q38.54 7.14 39.00 6.64L39.00 6.64L39.00 6.64Q39.45 6.13 40.08 5.86L40.08 5.86L40.08 5.86Q40.71 5.59 41.45 5.59L41.45 5.59L41.45 5.59Q42.20 5.59 42.83 5.86L42.83 5.86L42.83 5.86Q43.46 6.13 43.91 6.64L43.91 6.64L43.91 6.64Q44.37 7.14 44.62 7.85L44.62 7.85L44.62 7.85Q44.87 8.55 44.87 9.41ZM43.51 9.41L43.51 9.41L43.51 9.41Q43.51 8.18 42.96 7.46L42.96 7.46L42.96 7.46Q42.41 6.73 41.45 6.73L41.45 6.73L41.45 6.73Q40.50 6.73 39.95 7.46L39.95 7.46L39.95 7.46Q39.40 8.18 39.40 9.41L39.40 9.41L39.40 9.41Q39.40 10.64 39.95 11.36L39.95 11.36L39.95 11.36Q40.50 12.08 41.45 12.08L41.45 12.08L41.45 12.08Q42.41 12.08 42.96 11.36L42.96 11.36L42.96 11.36Q43.51 10.64 43.51 9.41ZM51.04 5.77L52.39 5.77L52.39 5.77Q51.84 7.81 51.11 9.69L51.11 9.69L51.11 9.69Q50.37 11.56 49.69 13.05L49.69 13.05L48.51 13.05L48.51 13.05Q47.82 11.56 47.09 9.69L47.09 9.69L47.09 9.69Q46.35 7.81 45.81 5.77L45.81 5.77L47.21 5.77L47.21 5.77Q47.38 6.45 47.61 7.23L47.61 7.23L47.61 7.23Q47.84 8.01 48.10 8.77L48.10 8.77L48.10 8.77Q48.36 9.53 48.62 10.25L48.62 10.25L48.62 10.25Q48.89 10.96 49.13 11.52L49.13 11.52L49.13 11.52Q49.36 10.96 49.63 10.25L49.63 10.25L49.63 10.25Q49.90 9.53 50.15 8.77L50.15 8.77L50.15 8.77Q50.41 8.01 50.64 7.23L50.64 7.23L50.64 7.23Q50.88 6.45 51.04 5.77L51.04 5.77ZM57.99 13.26L57.99 13.26L57.99 13.26Q56.97 13.26 56.13 12.92L56.13 12.92L56.13 12.92Q55.29 12.59 54.68 11.94L54.68 11.94L54.68 11.94Q54.08 11.30 53.75 10.35L53.75 10.35L53.75 10.35Q53.42 9.41 53.42 8.19L53.42 8.19L53.42 8.19Q53.42 6.97 53.79 6.03L53.79 6.03L53.79 6.03Q54.17 5.08 54.80 4.44L54.80 4.44L54.80 4.44Q55.43 3.79 56.27 3.46L56.27 3.46L56.27 3.46Q57.11 3.12 58.06 3.12L58.06 3.12L58.06 3.12Q58.66 3.12 59.14 3.21L59.14 3.21L59.14 3.21Q59.63 3.29 59.98 3.40L59.98 3.40L59.98 3.40Q60.34 3.51 60.56 3.63L60.56 3.63L60.56 3.63Q60.79 3.74 60.87 3.79L60.87 3.79L60.48 4.91L60.48 4.91Q60.35 4.83 60.12 4.73L60.12 4.73L60.12 4.73Q59.88 4.63 59.58 4.54L59.58 4.54L59.58 4.54Q59.28 4.44 58.92 4.38L58.92 4.38L58.92 4.38Q58.56 4.31 58.20 4.31L58.20 4.31L58.20 4.31Q57.43 4.31 56.81 4.58L56.81 4.58L56.81 4.58Q56.20 4.84 55.76 5.35L55.76 5.35L55.76 5.35Q55.33 5.85 55.10 6.57L55.10 6.57L55.10 6.57Q54.87 7.29 54.87 8.19L54.87 8.19L54.87 8.19Q54.87 9.06 55.07 9.77L55.07 9.77L55.07 9.77Q55.27 10.49 55.68 11.00L55.68 11.00L55.68 11.00Q56.08 11.51 56.69 11.79L56.69 11.79L56.69 11.79Q57.30 12.07 58.11 12.07L58.11 12.07L58.11 12.07Q59.05 12.07 59.67 11.87L59.67 11.87L59.67 11.87Q60.28 11.68 60.59 11.52L60.59 11.52L60.94 12.64L60.94 12.64Q60.84 12.71 60.59 12.82L60.59 12.82L60.59 12.82Q60.34 12.92 59.96 13.02L59.96 13.02L59.96 13.02Q59.58 13.12 59.08 13.19L59.08 13.19L59.08 13.19Q58.58 13.26 57.99 13.26ZM68.84 9.41L68.84 9.41L68.84 9.41Q68.84 10.28 68.59 10.98L68.59 10.98L68.59 10.98Q68.33 11.68 67.88 12.18L67.88 12.18L67.88 12.18Q67.42 12.68 66.79 12.96L66.79 12.96L66.79 12.96Q66.16 13.23 65.42 13.23L65.42 13.23L65.42 13.23Q64.68 13.23 64.05 12.96L64.05 12.96L64.05 12.96Q63.42 12.68 62.96 12.18L62.96 12.18L62.96 12.18Q62.51 11.68 62.26 10.98L62.26 10.98L62.26 10.98Q62.01 10.28 62.01 9.41L62.01 9.41L62.01 9.41Q62.01 8.55 62.26 7.85L62.26 7.85L62.26 7.85Q62.51 7.14 62.96 6.64L62.96 6.64L62.96 6.64Q63.42 6.13 64.05 5.86L64.05 5.86L64.05 5.86Q64.68 5.59 65.42 5.59L65.42 5.59L65.42 5.59Q66.16 5.59 66.79 5.86L66.79 5.86L66.79 5.86Q67.42 6.13 67.88 6.64L67.88 6.64L67.88 6.64Q68.33 7.14 68.59 7.85L68.59 7.85L68.59 7.85Q68.84 8.55 68.84 9.41ZM67.48 9.41L67.48 9.41L67.48 9.41Q67.48 8.18 66.93 7.46L66.93 7.46L66.93 7.46Q66.37 6.73 65.42 6.73L65.42 6.73L65.42 6.73Q64.47 6.73 63.92 7.46L63.92 7.46L63.92 7.46Q63.36 8.18 63.36 9.41L63.36 9.41L63.36 9.41Q63.36 10.64 63.92 11.36L63.92 11.36L63.92 11.36Q64.47 12.08 65.42 12.08L65.42 12.08L65.42 12.08Q66.37 12.08 66.93 11.36L66.93 11.36L66.93 11.36Q67.48 10.64 67.48 9.41ZM75.38 11.91L75.38 7.31L75.38 7.31Q75.14 7.11 74.69 6.93L74.69 6.93L74.69 6.93Q74.24 6.75 73.71 6.75L73.71 6.75L73.71 6.75Q73.15 6.75 72.75 6.95L72.75 6.95L72.75 6.95Q72.35 7.15 72.10 7.51L72.10 7.51L72.10 7.51Q71.85 7.87 71.74 8.36L71.74 8.36L71.74 8.36Q71.62 8.85 71.62 9.41L71.62 9.41L71.62 9.41Q71.62 10.68 72.25 11.38L72.25 11.38L72.25 11.38Q72.88 12.07 73.93 12.07L73.93 12.07L73.93 12.07Q74.47 12.07 74.82 12.02L74.82 12.02L74.82 12.02Q75.18 11.97 75.38 11.91L75.38 11.91ZM75.38 6.09L75.38 2.41L76.68 2.18L76.68 12.84L76.68 12.84Q76.23 12.96 75.53 13.09L75.53 13.09L75.53 13.09Q74.83 13.22 73.92 13.22L73.92 13.22L73.92 13.22Q73.08 13.22 72.41 12.95L72.41 12.95L72.41 12.95Q71.74 12.68 71.26 12.19L71.26 12.19L71.26 12.19Q70.78 11.70 70.52 11.00L70.52 11.00L70.52 11.00Q70.27 10.29 70.27 9.41L70.27 9.41L70.27 9.41Q70.27 8.57 70.48 7.87L70.48 7.87L70.48 7.87Q70.70 7.17 71.12 6.66L71.12 6.66L71.12 6.66Q71.54 6.16 72.15 5.88L72.15 5.88L72.15 5.88Q72.76 5.60 73.54 5.60L73.54 5.60L73.54 5.60Q74.17 5.60 74.65 5.77L74.65 5.77L74.65 5.77Q75.14 5.94 75.38 6.09L75.38 6.09ZM78.51 9.42L78.51 9.42L78.51 9.42Q78.51 8.46 78.79 7.74L78.79 7.74L78.79 7.74Q79.07 7.01 79.53 6.54L79.53 6.54L79.53 6.54Q80.00 6.06 80.60 5.82L80.60 5.82L80.60 5.82Q81.20 5.59 81.83 5.59L81.83 5.59L81.83 5.59Q83.30 5.59 84.08 6.50L84.08 6.50L84.08 6.50Q84.87 7.42 84.87 9.30L84.87 9.30L84.87 9.30Q84.87 9.38 84.87 9.51L84.87 9.51L84.87 9.51Q84.87 9.65 84.85 9.76L84.85 9.76L79.87 9.76L79.87 9.76Q79.95 10.89 80.53 11.48L80.53 11.48L80.53 11.48Q81.10 12.07 82.32 12.07L82.32 12.07L82.32 12.07Q83.01 12.07 83.47 11.95L83.47 11.95L83.47 11.95Q83.94 11.83 84.18 11.72L84.18 11.72L84.36 12.81L84.36 12.81Q84.13 12.94 83.53 13.08L83.53 13.08L83.53 13.08Q82.94 13.22 82.18 13.22L82.18 13.22L82.18 13.22Q81.23 13.22 80.53 12.93L80.53 12.93L80.53 12.93Q79.84 12.64 79.39 12.14L79.39 12.14L79.39 12.14Q78.95 11.63 78.73 10.94L78.73 10.94L78.73 10.94Q78.51 10.25 78.51 9.42ZM79.90 8.71L83.51 8.71L83.51 8.71Q83.52 7.83 83.07 7.26L83.07 7.26L83.07 7.26Q82.61 6.69 81.82 6.69L81.82 6.69L81.82 6.69Q81.37 6.69 81.02 6.87L81.02 6.87L81.02 6.87Q80.68 7.04 80.44 7.32L80.44 7.32L80.44 7.32Q80.21 7.60 80.07 7.97L80.07 7.97L80.07 7.97Q79.94 8.33 79.90 8.71L79.90 8.71ZM88.44 12.11L88.44 12.11L88.44 12.11Q89.24 12.11 89.62 11.90L89.62 11.90L89.62 11.90Q90.01 11.69 90.01 11.23L90.01 11.23L90.01 11.23Q90.01 10.75 89.63 10.47L89.63 10.47L89.63 10.47Q89.25 10.19 88.38 9.84L88.38 9.84L88.38 9.84Q87.96 9.67 87.58 9.50L87.58 9.50L87.58 9.50Q87.19 9.32 86.91 9.09L86.91 9.09L86.91 9.09Q86.63 8.85 86.46 8.51L86.46 8.51L86.46 8.51Q86.30 8.18 86.30 7.69L86.30 7.69L86.30 7.69Q86.30 6.72 87.01 6.15L87.01 6.15L87.01 6.15Q87.72 5.59 88.96 5.59L88.96 5.59L88.96 5.59Q89.26 5.59 89.57 5.62L89.57 5.62L89.57 5.62Q89.88 5.66 90.15 5.71L90.15 5.71L90.15 5.71Q90.41 5.75 90.61 5.81L90.61 5.81L90.61 5.81Q90.82 5.87 90.93 5.91L90.93 5.91L90.69 7.03L90.69 7.03Q90.48 6.92 90.03 6.80L90.03 6.80L90.03 6.80Q89.59 6.68 88.96 6.68L88.96 6.68L88.96 6.68Q88.41 6.68 88.00 6.89L88.00 6.89L88.00 6.89Q87.60 7.11 87.60 7.57L87.60 7.57L87.60 7.57Q87.60 7.81 87.69 7.99L87.69 7.99L87.69 7.99Q87.78 8.18 87.97 8.32L87.97 8.32L87.97 8.32Q88.16 8.47 88.44 8.60L88.44 8.60L88.44 8.60Q88.72 8.72 89.11 8.86L89.11 8.86L89.11 8.86Q89.63 9.06 90.03 9.25L90.03 9.25L90.03 9.25Q90.44 9.44 90.73 9.69L90.73 9.69L90.73 9.69Q91.01 9.94 91.17 10.30L91.17 10.30L91.17 10.30Q91.32 10.65 91.32 11.17L91.32 11.17L91.32 11.17Q91.32 12.18 90.57 12.70L90.57 12.70L90.57 12.70Q89.82 13.22 88.44 13.22L88.44 13.22L88.44 13.22Q87.47 13.22 86.93 13.05L86.93 13.05L86.93 13.05Q86.38 12.89 86.18 12.81L86.18 12.81L86.42 11.69L86.42 11.69Q86.65 11.77 87.14 11.94L87.14 11.94L87.14 11.94Q87.63 12.11 88.44 12.11Z"></path></g><!----><g data-v-d3f97b9e="" id="1f46f511-ac0f-4e71-84cc-97af2bf0688f" transform="matrix(1.125,0,0,1.125,-11.25,-11.25)" stroke="none" fill="white"><path d="M10 10h21.328v51.562H10zM68.662 64.219H90V90H68.662zM10 69.375h21.328V90H10zM39.863 10h21.328v25.781H39.863zM39.863 43.594h21.328V90H39.863zM68.662 10H90v46.406H68.662z"></path></g><!----></svg>