<svg fill="#697685" xmlns="http://www.w3.org/2000/svg" viewBox="0 0 298.369 298.369"><path d="M207.558 127.728c-12.021-17.53-26.837-27.626-40.693-27.749l-.258-.002c-13.889.068-28.754 10.172-40.808 27.751-11.142 16.248-17.794 35.916-17.794 52.612 0 22.521 6.2 39.662 18.428 50.947 10.007 9.236 23.866 14.133 40.088 14.18h.314c16.222-.047 30.081-4.943 40.089-14.18 12.227-11.285 18.427-28.426 18.427-50.947 0-16.696-6.651-36.364-17.793-52.612zm-40.88 102.742c-19.941-.02-43.673-8.745-43.673-50.13 0-28.678 24.469-65.273 43.674-65.363 8.634.045 19.549 8.17 28.508 21.234 9.354 13.64 15.164 30.55 15.164 44.129 0 41.385-23.731 50.109-43.673 50.13z"/><path d="M272.712 169.389c-3.67-23.284-17.365-49.665-31.865-77.595-9.552-18.4-19.429-37.426-25.797-54.868-10.128-27.738-27.824-40.54-47.59-34.61-19.695-6.053-54.606-2.071-69.982 34.26C90.5 53.065 78.851 70.214 66.518 88.37c-18.489 27.221-37.608 55.367-41.454 83.331-5.311 38.608 1.848 69.481 21.273 91.763 26.467 30.355 66.936 34.888 88.703 34.888 0 0 12.433.184 17.785-.64 4.511.421 9.131.64 13.852.64h1.543c35.658 0 65.67-12.137 84.506-34.176 19.568-22.893 26.292-54.784 19.986-94.787zM57.644 253.606c-16.451-18.868-22.413-45.737-17.721-79.861 3.367-24.483 21.483-51.153 39.003-76.945 12.198-17.958 24.813-36.527 32.366-54.378 3.983-9.411 9.403-15.78 15.316-19.997-2.514 4.248-4.783 9.086-6.76 14.502-6.368 17.442-16.245 36.468-25.797 54.868-14.5 27.93-28.195 54.311-31.865 77.595-6.306 40.003.418 71.895 19.985 94.787 4.449 5.207 9.53 9.852 15.154 13.924-14.039-4.216-28.47-11.637-39.681-24.495zm183.681.824c-21.508 25.164-55.033 28.922-73.104 28.922h-1.543c-18.07 0-51.596-3.758-73.103-28.922-16.588-19.406-22.163-47.232-16.571-82.705 3.291-20.874 17.053-47.383 30.361-73.02 9.771-18.822 19.875-38.284 26.574-56.635 4.315-11.821 13.935-30.652 30.241-25.05 3.053 1.049 4.779.617 6.539 0 16.272-5.707 25.926 13.23 30.241 25.05 6.699 18.351 16.803 37.813 26.574 56.635 13.309 25.637 27.07 52.146 30.361 73.02 5.593 35.472.018 63.299-16.57 82.705z"/><path d="M142.801 177.719a7.499 7.499 0 01-7.5-7.5c0-11.099 11.344-33.183 24.271-37.423a7.499 7.499 0 019.464 4.788 7.5 7.5 0 01-4.788 9.464c-5.472 1.795-13.947 16.93-13.947 23.171 0 4.143-3.357 7.5-7.5 7.5z"/></svg>