<svg xmlns="http://www.w3.org/2000/svg" width="24" height="28" viewBox="0 0 24 28"><path fill="#697685" d="M12 12c4.703 0 9.422-.844 12-2.656V12c0 2.203-5.375 4-12 4S0 14.203 0 12V9.344C2.578 11.157 7.297 12 12 12zm0 12c4.703 0 9.422-.844 12-2.656V24c0 2.203-5.375 4-12 4S0 26.203 0 24v-2.656C2.578 23.157 7.297 24 12 24zm0-6c4.703 0 9.422-.844 12-2.656V18c0 2.203-5.375 4-12 4S0 20.203 0 18v-2.656C2.578 17.157 7.297 18 12 18zm0-18c6.625 0 12 1.797 12 4v2c0 2.203-5.375 4-12 4S0 8.203 0 6V4c0-2.203 5.375-4 12-4z"/></svg>