<svg xmlns="http://www.w3.org/2000/svg" width="32" height="32" viewBox="0 0 32 32"><path fill="#697685" d="M27.733 19.635l-1.316 4.914-.037.01-1.438 5.367-9.296-2.49-.111.029-9.788-2.622-.017-.064-2.605-.699.493-1.841.032.009L8.479 4.226l-.032-.009.509-1.897 17.105 4.584.016-.056 4.711 1.262-3.072 11.46.017.065zm.649-10.137L10.359 4.669l-3.558 13.28 18.021 4.828 3.56-13.279zm-16.148 3.894l1.194 2.045 3.107-2.925 1.583 2.766 4.185-3.689 1.047 8.559-13.822-3.706 2.706-3.05zm.893-2.012a1.473 1.473 0 11.765-2.846 1.473 1.473 0 01-.765 2.846zm8.513-6.901l-.414.111-3.795-1.017 5.598-1.5.866 3.231-2.19-.587-.065-.238zM3.617 9.309l1.242 4.635-1.017 3.794-2.63-9.818L6.88 6.401l-.587 2.19-2.676.718zm3.441 20.427L6.04 25.938l7.597 2.036-6.579 1.762z"/></svg>