<svg xmlns="http://www.w3.org/2000/svg" width="32" height="32" viewBox="0 0 32 32"><path fill="#697685" d="M16 32C7.164 32 0 24.836 0 16S7.164 0 16 0s16 7.164 16 16-7.164 16-16 16zm12.968-17.341c.026-.013.04-.035.05-.07a.487.487 0 00.154.281c.002.01-.003.008.002.022.008 0 .014-.006.021-.006A.484.484 0 0029.5 15c.18 0 .33-.1.418-.241.006.007.016.016.021.024l-.005-.048A.485.485 0 0030 14.5a.5.5 0 00-.5-.5.494.494 0 00-.412.232c-.004-.003 0-.015-.011-.011.013-.038-.022-.135-.077-.239v.518c0 .057-.016.108-.032.159zm-22.976-.15c0-.151-.344-.408-.433-.408 0-.027-.14-.335-.193-.335 0-.104-.365-.571-.423-.367-.038.132.279.31.279.463.059 0 .307.47.356.552.542.916-.405.29-.405-.098-.121-.06-.312-.521-.312-.647-.071-.057-.281-.502-.264-.502 0-.292-.161-.432-.481-.432a9.6 9.6 0 00-.289-.407c0-.12-.216-.492-.336-.551 0-.249-.128-.556-.071-.814 0-.271-.014-.578-.106-.856A13.915 13.915 0 002 16c0 6.041 3.834 11.174 9.196 13.137.006-.496.043-1.09.156-1.09 0-.074.063-.384.12-.384 0-.19.023-.419 0-.647-.071-.143.094-.326.144-.551.277-.139.081-1.533.29-1.533 0-.697.156-1.103.047-1.749.053 0-.315-.391-.312-.384-.353 0-.6-.566-.6-.814-.034-.109-.121-.272-.121-.407.081 0-.505-.856-.505-.839-.31-.172.017-.412.048-.694-.269-.089.003-.815.12-.815a.226.226 0 01.145-.191c.06.239.339-.119.12-.119 0-.158-.018-.496 0-.575 0-.244-.216-.722-.384-.216-.18-.089-.634-.073-.673-.359.028-.141-.259-.429-.36-.479.094-.246-.487-.575-.697-.575 0-.053-.111-.029-.144-.096-.214 0-.263-.288-.505-.288-.279 0-.56-.191-.817-.191-.086-.171-.485-.104-.577-.288-.209 0-.291-.396-.297-.542-.009-.18-.152-.802-.402-.802zm20.256-8.025c-.002.006.002.002-.008.022.015 0 .033.017.05.024l-.042-.046zm.301.331c.035.068.061.131.053.17.035.001.052-.018.08-.025-.043-.049-.09-.095-.133-.145zm.869 4.556c.016-.432-.36-.36-.479-.6-.124 0-.169-.096-.337-.096-.109-.037-.195-.011-.258.078-.257.098-.102-.125-.295-.125.009-.247-.089-.315-.361-.288-.156.352-.396.563-.36.959.115.026.095.052.072.167.153.008 1.081-.048 1.081-.144.032 0 .193.331.193.048.129 0 .197.303.505.215 0 .062.514-.214.239-.214zm.049 5.103c.018-.088-.044-.127-.096-.216.137 0-.433-1.057-.433-1.222-.087-.043-.198-.345-.218-.455-.117-.078-.238-.334-.288-.479-.119-.079-.409-.433-.456-.599.172.019.432.054.432-.168-.116 0-.133-.143-.023-.143-.036-.147.078-.253.103-.368.03-.139.089-.353.089-.519-.165 0-.205.028-.336.072 0 .097-.293-.024-.336-.024-.063-.126-.52.164-.648-.096-.207-.187-.151-.331-.218-.595-.034-.134-.217-.142-.328-.164-.313-.061-.087.373-.104.472.192 0-.121.238-.121.359-.324-.07-.216-.431-.407-.527-.057-.096-.012-.168-.145-.168 0-.128.068-.36-.072-.407 0-.062-.272-.087-.312-.168-.172 0-.572-.65-.695-.431-.077.14.065.174.094.288.249-.049.225.41.529.359 0 .064.008.129.023.192.225-.053.199.167.312.167-.082.109-.342-.174-.271.064.041.138.018.256-.161.391 0-.149-.012-.551-.168-.551-.106-.212-.421-.161-.554-.359-.108 0-.15-.336-.336-.359-.035.049-.166.096-.217.096-.101.203-.672.021-.672.048-.009.002-.32.762-.338.862-.035.215-.208.219-.26.423-.026.102-.653.054-.653.129-.271-.09-.505-.28-.505-.575-.022 0 .051-.753.097-.863.055.015.066.034.097.096.166-.062.553.041.553-.144.161.004.209.068.144.192.15.028.409.066.409-.144-.088 0-.097-.008-.097-.096.288-.299-.216-.569-.216-.718-.102-.034-.31-.255-.162-.172.125.069.582.212.402-.092a.033.033 0 00.023-.023c.051.036.266.257.266.048.059 0 .287-.144.096-.144.018-.108.014-.198.023-.264.305.164.135-.112.289-.215 0 .199.164-.096.264-.096.119-.177.391-.04.457-.24-.147-.048-.12-.416-.12-.55.177.029.374-.239.401-.055.01.071.019.267.055.294.263.138.193-.079.193-.215-.088 0-.205-.308-.217-.456-.072.01-.188.04-.217.095-.262 0-.44-.095-.648-.095-.016-.032-.266-.312-.24-.312-.146-.251.146-.178.192-.19 0-.238.991-.196 1.034-.576-.326 0 .336-.552.336-.55.221-.189.338-.352.613-.373.116-.008 1.406-.364 1.406-.203.052.002.224.004.402.01A13.922 13.922 0 0016 2a13.928 13.928 0 00-9.277 3.535c.022.05.039.098.038.132.131-.009.319-.093.361.073a.822.822 0 01-.192-.025c.046.371-.162.144-.336.144a.484.484 0 00-.159-.062c-.053.05-.109.097-.162.147.006.016-.003.017.007.035.056 0 .027.087.187.14.185.063.388.098.583.129.158.025.249-.029.384-.029 0-.02.33-.167.097-.167.032-.132-.027-.165-.169-.167.012-.14.345-.048.481-.048.104-.175.003-.154.095-.313.11-.195.241-.026.313-.213.109.04.206.099.241.237.087.072.529.724.529.263.158.053.237.349.24.504.287-.042.312-.257.312-.48.066 0-.024-.107-.024-.144.107-.039.241.102.241-.047.046 0 .048.046.048.096.149.029.245-.017.336.015.063.022.031.349.002.464-.036.146-.315.148-.315.216-.316.236.373.359.481.503-.065 0-.312-.032-.312-.047-.156 0-.534.165-.673.047.194 0 .259-.233.289-.455a.344.344 0 00-.44.221c-.084.294-.279-.012-.377.186-.038.012-.385.173-.385.119-.39.055-.288.386-.288.743.155.093.47.358.456.503.35.062.478.099.793.144.026.051.13.099.193.119 0 .206.187.169.36.169 0-.263.306.219.336.311-.042 0 .072.269.096.36-.048-.017-.063 0-.048.048.152.056.393.04.433-.12-.146 0-.097-.167-.097-.264-.15-.1-.127-.293.024-.335 0 .136.495-.085.216-.191.068-.153.114-.388.003-.521-.071-.084-.16 0-.195-.126.189-.047.05-.407.048-.575.06-.023.216.038.216 0 .185 0 .493.234.601-.049.309.141.063.275.385.168 0 .076.363.431.409.431 0 .017-.009.12.071.12 0 .077-.048-.044-.048.095.045.005.289.049.289-.047.155 0 .264-.19.264-.335.097-.063.267.527.384.527.086.134.361.329.361.455.058.059.119.043.119.216.073 0 .217-.287.217-.024.068 0 .266.146.289.263-.173 0-.009.168-.098.168 0 .166-.371.034-.455.024-.115.515-.809.145-1.229.278-.221.07-.648.557-.671.8.268.003.386-.232.625-.312.195 0 .233-.118.409-.167 0 .049.048.023.048.072-.342 0-.134.221-.034.382.062.1.133.148.212.179a.952.952 0 00-.081.181l-.001.001c-.065.022-.192.069-.217.12-.387.043-.196.017-.17-.076.014.033.153.003.147.004-.023-.116-.058-.1-.024-.167-.21 0-.312.096-.481.096-.028.057-.175.192-.24.192-.049.148-.16.417-.289.503 0-.039-.342.215-.312.215-.076.123-.159.119-.193.311-.023.012-.12.333-.12.383-.149.099-.204.503-.457.503-.155.308-.433.267-.433.671.094.096.13.521.159.657.036.169.092.345-.134.349-.016-.025-.174-.264-.145-.264 0-.099-.121-.416-.192-.515-.095-.133-.271.021-.409-.037-.059-.118-.458-.144-.6-.144.023.089.088.117.096.216-.118.048-.186.102-.308.085-.209-.029-.184-.192-.414-.169a.695.695 0 00-.625.707c-.041 0-.041.719 0 .719 0 .203.168.35.168.503.163 0 .346.359.505.359.018.127-.08.147.192.145 0-.014.148-.093.168-.192-.188-.046-.001-.288.12-.335 0 .171.24-.057.24-.072.027-.011.265-.096.265-.096 0-.194.181.019.048.096-.13 0-.12.216-.192.216-.031.154-.092.288-.128.438-.046.185.104.204.056.377.191.036.384.001.577 0a.17.17 0 00-.024-.096c.279 0 .024.527.193.527 0 .199.096.354.096.479.13.086.208.201.168.359.16.021.504.062.504-.144.243 0 .26.165.242.335.484 0 .181-.479.383-.479.019-.079.052-.093.099-.041.099.053.174-.099.253-.147a.651.651 0 01.129-.068c.068.041.074.029.104.075.132-.001.265-.075.378-.153.173.021.117.393.441.416.13.009.431.045.543-.032.028-.019.131.065.142.101.108 0 .1.094.146.092.011.021.027.029.049.023.014.041.1.053.145.167 0 .104.216.122.216.191.155.078-.053.099.185.171.131.041.252.107.393.117.045-.171.191.023.265.023.038.078.058.019.095.096.223.186.076.114.168.312.107.07.141.314.17.455-.086 0-.025.329-.025.36-.104 0 .266.197.266-.049.152.025.252.191.36.191-.063.145.168.254.168.025.228.023.167.363.145.479.169 0 .218-.094.362-.112A.978.978 0 0117 20a1 1 0 011 1 .987.987 0 01-.848.969 1.75 1.75 0 01-.126.136c0 .048-.011.526-.025.526 0 .096-.073.623-.144.623 0 .271-.177.32-.24.575-.146.108-.541.288-.602.407-.113 0-.197.096-.312.096-.016.033-.261.264-.217.264-.018.17.013.57-.079.682-.062.074-.151.066-.112.182-.135 0 .008.096-.205.096-.134 0-.373.191-.38.353-.009.198-.062.341-.232.462 0 .068-.312.088-.312.264.029 0 0 .326 0 .359-.093-.003-.321.09-.36.167-.314 0-.276.032-.48.168 0 .042-.029.191-.072.191 0 .243-.173.022-.313.145.055 0 .125.239.096.239 0 .211-.131.229-.264.384-.063.042-.123.216-.168.216 0 .142-.071.271-.071.407.03 0 .002.061.023.118.067-.019.069-.095.096-.095 0-.12.191.071.072.071-.099.15-.206.153-.265.36-.06 0-.112.058-.156.126 1.178.321 2.414.509 3.696.509 4.924 0 9.246-2.548 11.742-6.393.015-.354.07-.692.109-.809.098.072.171.207.24 0-.173-.034-.131-.094-.072-.239.066.04.199.089.307.082.033-.062.059-.128.092-.19-.098-.076.037-.273.084-.177.025-.048.047-.098.07-.146-.011-.003-.008.004-.024-.001 0-.087.016-.076.073-.12.001.009 0 .009.002.017A13.927 13.927 0 0030 16c0-.071-.01-.139-.011-.21-.026.098-.075.204-.144.228 0 .063-.715.374-.672.503-.126 0-.568.126-.649.287-.089 0-.448.127-.481.192-.446.001-.361-.526-.576-.526zM29.5 11h-.531c-.004-.005-.008-.006-.012-.013-.027 0-.14-.254-.096-.312.043 0 .063.004.086.006-.045-.11-.094-.218-.143-.327-.108.074-.203.168-.352.177 0 .041-.213.455 0 .455 0 .008.004.014.006.021A.499.499 0 0028 11.5a.5.5 0 00.5.5h.197c.012.091.061.17.236.209.055.231.467.313.529.071-.174 0-.117-.167-.102-.28h.14a.5.5 0 000-1zm-1.457 6.502c.035.002.266-.004.266-.045.209 0 .492-.029.697-.097 0 .31-.261.483-.217.791-.173 0-.097.178-.097.239-.112.069-.129.195-.264.264 0 .139-.312.369-.404.488-.104.133-.417.364-.458.533.011-.04-.572.607-.436.607 0 .121-.164 1.078.048 1.078 0 .084.181.887.071.887 0 .258-.168.416-.168.622-.082.056-.199.087-.24.169-.147 0-.218.312-.288.312 0 .333-.097.58-.097.958.027 0-.192.539-.192.574-.177.119-.625.546-.625.768 0 0-.312.438-.36.503-.094 0-.818.136-.818.192-.154 0-.552.121-.648-.024 0-.152-.083-.345-.096-.552-.074 0-.086-.311-.168-.311 0-.066-.459-.983-.385-.983 0-.095-.082-.407-.096-.407 0-.33-.241-.605-.241-.91-.071 0-.218-.67-.144-.67 0-.352.123-.582.174-.973.057-.429-.027-.69-.102-.993-.041 0-.179-.229-.193-.287-.193-.128-.264-.382-.264-.622.126-.144.176-.685.145-.863-.243-.115-.34-.072-.602-.072-.155-.311-1.196-.119-1.491-.119 0 .17-.725-.033-.793-.168-.177 0-.528-.376-.528-.551-.194-.129-.504-.771-.504-.982-.168-.084-.117-.408-.025-.408.023-.09-.059-.374-.098-.509-.029-.101.098-.21.098-.33 0-.334.008-.488.195-.845.059-.112.134-.217.189-.357.1-.251.13-.012.265-.236.129-.064.204-.278.337-.383.058-.077.06-.109 0-.168.026 0 .168-.369.168-.454.188-.261.055-.142.24-.12.068-.074.181-.264.288-.264.047-.093.165-.144.265-.144 0 .144.392-.047.433-.047.067-.135.499-.288.601-.288 0-.164.852.046.986.024v-.072c.182.043.514.773.48.935.14 0 .27-.023.361 0 0 .155.292.193.425.2.185.009.728-.019.728-.272.143 0 .27.1.242.263.162.018 1.125.037 1.057.239.141 0 .177.241.312.241-.027.166.168.599.312.599 0 .144.09.409.217.502.068.206.293.64.504.767-.09.17.137.31.193.479-.013 0 .049.251.119.288 0 .17.358.863.554.863.013.084-.184.122.072.141zm-5.191-5.365c.037-.143.121-.032.199-.006.185.06.121-.003.258-.065 0 .39-.224.094-.457.071zm-.506-.719c.098 0 .125.44-.144.359 0-.109-.069-.311.073-.311.041.17.071.101.071-.048zm-.119-.287c.111.048.16.032.144-.048.146.048-.019.152-.048.264-.075-.074-.052-.1-.096-.216zm-2.573-2.133c-.236-.061.243-.131.264-.191-.08 0-.135-.083-.104-.153.036-.083.095.099.177.058.097-.01.288-.155.19.125-.1.284-.191.492-.551.497-.129-.13-.005-.198.024-.336zm.89-.982c.194 0 .024.144-.019.144.033.013-.006.129-.006.167.18-.002.183-.112.312-.144-.027.161-.207.192-.031.33.093.073.188.159.151.27.229 0 .263.22.216.479.127 0 .121.006.121-.121.123.034.114.145 0 .145-.114.225-.413.215-.625.215-.002-.174-.035-.185-.196-.136-.22.067-.048-.175-.044-.295.024 0 .499.022.216-.072-.015-.258-.073-.335-.312-.335 0-.176-.062-.163-.091-.356-.041-.285.223.02.308-.291zm-.073 1.557c0 .059-.12.106-.144.023.023.008.032 0 .023-.023h.121zM18.5 7h-1a.5.5 0 010-1h1a.5.5 0 010 1zm-5.826 8.85c.056 0 .121.022.121.072-.073 0-.167.069-.121-.072zm-.912.049c-.04.076-.364.063-.409-.025.12 0 .213.049.336 0 0-.066-.055-.119-.096-.191.131 0 .278.1.457.096 0-.111-.049.024 0-.12.075.019.256.191.264.263-.263-.028-.275-.023-.552-.023zm-1.058-.575c-.123 0-.36-.107-.433-.216.119.005.237.054.312-.072.305.031.332.241.577.241.046.081.308.267.055.291-.191.018-.431-.086-.511-.244zm.192.671c-.089 0-.236.039-.168-.145.118.016.174.065.168.145zm.168-.024l-.144.024c.014-.111.119-.235.144-.024zm.889 1.053c-.019.067-.016.071-.095.071l.023-.095.072.024zM9.79 15.036l.072.024c.031.119.096.06.168.024 0 .139-.322.179-.24-.048z"/></svg>