<svg xmlns="http://www.w3.org/2000/svg" width="36" height="28" viewBox="0 0 36 28"><path fill="#697685" d="M27.719 13.062L28 17.999c.125 2.203-4.484 4-10 4s-10.125-1.797-10-4l.281-4.937 8.969 2.828c.25.078.5.109.75.109s.5-.031.75-.109zM36 8a.522.522 0 01-.344.484l-17.5 5.5C18.093 14 18.047 14 18 14s-.094 0-.156-.016L7.657 10.765c-.891.703-1.516 2.422-1.641 4.531.594.344.984.969.984 1.703a1.99 1.99 0 01-.906 1.672L7 25.437a.513.513 0 01-.5.563h-3a.512.512 0 01-.5-.563l.906-6.766A1.99 1.99 0 013 16.999c0-.75.422-1.391 1.016-1.734.094-1.828.562-3.797 1.531-5.156L.344 8.484C.141 8.406 0 8.218 0 8s.141-.406.344-.484l17.5-5.5C17.907 2 17.953 2 18 2s.094 0 .156.016l17.5 5.5A.523.523 0 0136 8z"/></svg>