<svg xmlns="http://www.w3.org/2000/svg" width="32" height="32" viewBox="0 0 32 32"><path fill="#697685" d="M16.5 24.447v-.996c3.352.099 5.993 1.174 5.993 2.487 0 1.379-2.906 2.56-6.492 2.56s-6.492-1.181-6.492-2.56c0-1.313 2.641-2.389 5.992-2.487v.996c-2.799.069-4.993.71-4.993 1.491 0 .827 2.459 1.623 5.493 1.623 3.033 0 5.492-.796 5.492-1.623-.001-.781-2.194-1.421-4.993-1.491zM10.516 8.995c0-3.033 2.521-5.493 5.556-5.493a5.491 5.491 0 011.237 10.841L16 27.562l-1.313-13.256c-2.362-.615-4.171-2.756-4.171-5.311zM16 7.524a1.498 1.498 0 10-2.996 0 1.498 1.498 0 002.996 0z"/></svg>