<svg xmlns="http://www.w3.org/2000/svg" viewBox="0 0 768 768"><path fill="#697685" d="M608 544H384c-35.296 0-64 28.704-64 64s28.704 64 64 64h224c35.296 0 64-28.704 64-64s-28.704-64-64-64zm0-224H384c-35.296 0-64 28.704-64 64s28.704 64 64 64h224c35.296 0 64-28.704 64-64s-28.704-64-64-64zm0-224H384c-35.296 0-64 28.704-64 64s28.704 64 64 64h224c35.296 0 64-28.704 64-64s-28.704-64-64-64zM240 608c0 44.182-35.817 80-80 80s-80-35.817-80-80 35.817-80 80-80 80 35.817 80 80zm0-224c0 44.183-35.817 80-80 80s-80-35.817-80-80 35.817-80 80-80 80 35.817 80 80zm0-224c0 44.183-35.817 80-80 80s-80-35.817-80-80 35.817-80 80-80 80 35.817 80 80z"/></svg>