<svg xmlns="http://www.w3.org/2000/svg" viewBox="0 0 512 512"><path fill="#697685" d="M288.368 223.6h92.624c-11.744-45.376-47.248-80.912-92.624-92.624V223.6zm0 64.8v92.592c45.376-11.68 80.88-47.248 92.624-92.592h-92.624zm-64.8-64.8v-92.624c-45.376 11.712-80.944 47.248-92.624 92.624h92.624zm0 64.8h-92.624c11.68 45.344 47.248 80.912 92.624 92.592V288.4zm64.8-223.552C369.552 78.592 433.36 142.416 447.12 223.6H512C497.184 106.624 405.376 14.784 288.368 0v64.848zM64.816 223.6C78.56 142.4 142.368 78.592 223.568 64.848V0C106.624 14.784 14.752 106.624 0 223.6h64.816zm158.752 223.52C142.384 433.376 78.576 369.616 64.816 288.4H0C14.752 405.376 106.624 497.248 223.568 512v-64.88zM447.12 288.4c-13.744 81.216-77.568 144.976-158.752 158.72V512C405.376 497.248 497.184 405.376 512 288.4h-64.88z"/></svg>