<svg xmlns="http://www.w3.org/2000/svg" viewBox="0 0 384 448"><path fill="#697685" d="M300.25 196C335.5 206.25 384 241 384 354.75c0 51.5-38.25 93.25-85.25 93.25H85.25C38.25 448 0 406.25 0 354.75 0 241 48.5 206.25 83.75 196 71.25 176.25 64 153 64 128 64 57.5 121.5 0 192 0s128 57.5 128 128c0 25-7.25 48.25-19.75 68zM192 32c-53 0-96 43-96 96s43 96 96 96 96-43 96-96-43-96-96-96zm106.75 384C328 416 352 388.75 352 354.75c0-78.75-26.5-128-76-130.5C253.5 244 224.25 256 192 256s-61.5-12-84-31.75c-49.5 2.5-76 51.75-76 130.5 0 34 24 61.25 53.25 61.25h213.5z"/></svg>