<!-- Generated by IcoMoon.io -->
<svg version="1.1" xmlns="http://www.w3.org/2000/svg" viewBox="0 0 512 512">
<title></title>
<g id="icomoon-ignore">
</g>
<path fill="#697685" d="M288.368 223.6h92.624c-11.744-45.376-47.248-80.912-92.624-92.624v92.624zM288.368 288.4v92.592c45.376-11.68 80.88-47.248 92.624-92.592h-92.624zM223.568 223.6v-92.624c-45.376 11.712-80.944 47.248-92.624 92.624h92.624zM223.568 288.4h-92.624c11.68 45.344 47.248 80.912 92.624 92.592v-92.592zM288.368 64.848c81.184 13.744 144.992 77.568 158.752 158.752h64.88c-14.816-116.976-106.624-208.816-223.632-223.6v64.848zM64.816 223.6c13.744-81.2 77.552-145.008 158.752-158.752v-64.848c-116.944 14.784-208.816 106.624-223.568 223.6h64.816zM223.568 447.12c-81.184-13.744-144.992-77.504-158.752-158.72h-64.816c14.752 116.976 106.624 208.848 223.568 223.6v-64.88zM447.12 288.4c-13.744 81.216-77.568 144.976-158.752 158.72v64.88c117.008-14.752 208.816-106.624 223.632-223.6h-64.88z"></path>
</svg>
