<svg xmlns="http://www.w3.org/2000/svg" width="32" height="32" viewBox="0 0 32 32"><path fill="#fff" d="M19 5.813v3.98c3.024.618 5-.39 5-.39l.018-.014v4.086H24s-2.112.843-5 .324v4.004a11.43 11.43 0 01-2.491-.825A10.313 10.313 0 0014 16.2v-3.999c-3.039-.626-5 .368-5 .368V8.412s2.228-.727 5-.232V4.228a11.74 11.74 0 012.443.794 11.03 11.03 0 002.558.791zM8 11.994v17h1V17.539c1.377-.495 4.081-1.034 7.5.455 5.023 2.187 8.5 0 8.5 0v-14s-3.476 2.236-8.5 0-8.5 0-8.5 0v8zm6-3.793c.75.154 1.566.408 2.434.798A10.95 10.95 0 0019 9.798v3.995a11.368 11.368 0 01-2.5-.833 10.225 10.225 0 00-2.5-.782V8.2z"/></svg>