<svg xmlns="http://www.w3.org/2000/svg" viewBox="0 0 598 90"><path d="M140.053 21.336h8.88q-2.383 2.545-5.307 5.685-2.978 3.14-6.172 6.443-3.248 3.303-6.443 6.497-3.194 3.194-5.955 5.901 3.248 2.274 6.876 5.631 3.627 3.303 7.146 7.093 3.465 3.79 6.551 7.742 3.032 3.952 5.09 7.526h-8.609q-2.274-3.574-5.251-7.201-2.978-3.573-6.28-6.876-3.25-3.303-6.66-6.118-3.357-2.761-6.552-4.765v24.96h-7.363V21.336h7.363V44.51q2.653-2.49 5.848-5.63 3.194-3.141 6.28-6.335 3.14-3.195 5.902-6.118 2.76-2.924 4.656-5.09zm30.536 47.428q2.49 0 4.44-.108 1.949-.108 3.194-.433V56.474q-.758-.379-2.437-.65-1.732-.27-4.114-.27-1.625 0-3.411.27-1.787.217-3.249.92-1.462.705-2.436 1.95-1.029 1.3-1.029 3.303 0 3.79 2.437 5.306 2.436 1.461 6.605 1.461zm-.596-35.3q4.223 0 7.147 1.083 2.924 1.083 4.71 3.086 1.787 2.003 2.545 4.819.758 2.76.758 6.063V73.15q-.92.162-2.545.433-1.624.27-3.681.487-2.058.217-4.44.433-2.382.163-4.71.163-3.357 0-6.172-.65-2.816-.704-4.82-2.166-2.056-1.515-3.193-3.898-1.137-2.436-1.137-5.847 0-3.249 1.299-5.63 1.354-2.329 3.627-3.79 2.274-1.408 5.306-2.112 3.032-.704 6.335-.704 1.083 0 2.22.108 1.137.163 2.165.325 1.03.217 1.787.325.758.162 1.029.27v-2.003q0-1.732-.38-3.465-.378-1.678-1.353-2.977-.974-1.354-2.653-2.166-1.732-.758-4.44-.758-3.519 0-6.117.487-2.6.487-3.899 1.029l-.866-5.847q1.408-.596 4.548-1.192 3.194-.541 6.93-.541zm52.95.975v5.305q-1.57 1.733-4.168 4.927-2.653 3.195-5.63 7.039-2.979 3.844-6.01 8.121-2.978 4.223-5.252 8.121h21.71v5.902h-30.102v-4.71q1.786-3.357 4.44-7.364 2.652-4.006 5.576-8.013 2.924-3.952 5.685-7.471 2.761-3.52 4.818-5.956h-19.49v-5.901h28.424zm22.903 34.325q2.49 0 4.44-.108 1.948-.108 3.248-.433V56.474q-.758-.379-2.49-.65-1.679-.27-4.115-.27-1.625 0-3.357.27-1.787.217-3.303.92-1.462.705-2.436 1.95-.975 1.3-.975 3.303 0 3.79 2.382 5.306 2.437 1.461 6.606 1.461zm-.596-35.3q4.223 0 7.147 1.083 2.924 1.083 4.71 3.086 1.787 2.003 2.545 4.819.758 2.76.758 6.063V73.15q-.92.162-2.545.433-1.624.27-3.681.487-2.058.217-4.44.433-2.382.163-4.71.163-3.357 0-6.173-.65-2.76-.704-4.818-2.166-2.058-1.515-3.195-3.898-1.136-2.436-1.136-5.847 0-3.249 1.353-5.63 1.3-2.329 3.573-3.79 2.274-1.408 5.306-2.112 3.032-.704 6.389-.704 1.029 0 2.166.108 1.137.163 2.165.325 1.03.217 1.787.325.758.162 1.083.27v-2.003q0-1.732-.38-3.465-.378-1.678-1.407-2.977-.974-1.354-2.653-2.166-1.732-.758-4.44-.758-3.519 0-6.117.487-2.6.487-3.899 1.029l-.812-5.847q1.354-.596 4.548-1.192 3.14-.541 6.876-.541zm41.094 18.679q2.274 1.787 4.818 4.331 2.545 2.599 4.981 5.577 2.49 2.978 4.657 6.064 2.22 3.086 3.735 5.739h-8.283q-1.57-2.653-3.682-5.414-2.057-2.762-4.331-5.306-2.274-2.545-4.656-4.657-2.329-2.165-4.44-3.573v18.95h-7.039V16.247l7.039-1.245v35.95q1.787-1.841 4.006-4.007 2.22-2.22 4.332-4.493 2.111-2.274 4.006-4.332 1.895-2.111 3.249-3.681h8.283q-1.732 1.895-3.79 4.168-2.057 2.274-4.277 4.548-2.165 2.328-4.385 4.657-2.274 2.328-4.223 4.33zm60.097 2.003q0 4.71-1.354 8.5-1.353 3.79-3.844 6.497-2.436 2.707-5.847 4.223-3.41 1.462-7.471 1.462-4.007 0-7.418-1.462-3.41-1.516-5.847-4.223-2.49-2.707-3.844-6.497-1.354-3.79-1.354-8.5 0-4.656 1.354-8.446 1.353-3.844 3.844-6.551 2.436-2.761 5.847-4.223 3.411-1.462 7.418-1.462 4.06 0 7.471 1.462 3.411 1.462 5.847 4.223 2.49 2.707 3.844 6.551 1.354 3.79 1.354 8.446zm-7.363 0q0-6.66-2.978-10.557-2.978-3.953-8.175-3.953-5.144 0-8.122 3.953-2.977 3.898-2.977 10.557 0 6.66 2.977 10.558 2.978 3.898 8.122 3.898 5.197 0 8.175-3.898 2.978-3.898 2.978-10.558zm40.768-19.707h7.31q-2.978 11.044-6.93 21.223-4.007 10.125-7.689 18.192h-6.388q-3.736-8.067-7.689-18.192-4.006-10.179-6.93-21.223h7.58q.92 3.681 2.166 7.904 1.245 4.223 2.653 8.338 1.407 4.115 2.815 8.013 1.462 3.844 2.761 6.876 1.246-3.032 2.707-6.876 1.462-3.898 2.816-8.013 1.408-4.115 2.653-8.338 1.3-4.223 2.165-7.904zm37.629 40.552q-5.523 0-10.07-1.841-4.548-1.787-7.851-5.306-3.248-3.465-5.035-8.609-1.787-5.089-1.787-11.694t2.003-11.695q2.058-5.143 5.469-8.608 3.41-3.52 7.959-5.306 4.547-1.841 9.69-1.841 3.25 0 5.848.487 2.653.433 4.548 1.029 1.95.596 3.14 1.245 1.246.596 1.679.867l-2.112 6.063q-.704-.433-1.949-.974-1.3-.542-2.924-1.029-1.624-.541-3.573-.866-1.949-.38-3.898-.38-4.169 0-7.526 1.463-3.302 1.407-5.685 4.169-2.328 2.707-3.573 6.605-1.245 3.898-1.245 8.77 0 4.711 1.083 8.555 1.082 3.898 3.302 6.66 2.166 2.76 5.469 4.277 3.302 1.516 7.688 1.516 5.089 0 8.446-1.083 3.302-1.029 4.98-1.895l1.896 6.064q-.542.379-1.895.974-1.354.542-3.411 1.083-2.058.542-4.765.92-2.707.38-5.901.38zm58.744-20.845q0 4.71-1.354 8.5-1.408 3.79-3.844 6.497-2.49 2.707-5.901 4.223-3.411 1.462-7.418 1.462-4.006 0-7.417-1.462-3.411-1.516-5.902-4.223-2.436-2.707-3.79-6.497-1.353-3.79-1.353-8.5 0-4.656 1.353-8.446 1.354-3.844 3.79-6.551 2.49-2.761 5.902-4.223 3.41-1.462 7.417-1.462t7.418 1.462q3.41 1.462 5.901 4.223 2.436 2.707 3.844 6.551 1.354 3.79 1.354 8.446zm-7.364 0q0-6.66-2.977-10.557-3.032-3.953-8.176-3.953-5.143 0-8.121 3.953-3.032 3.898-3.032 10.557 0 6.66 3.032 10.558 2.978 3.898 8.121 3.898 5.144 0 8.176-3.898 2.977-3.898 2.977-10.558zm42.772 13.536V42.776q-1.3-1.082-3.735-2.057-2.437-.975-5.306-.975-3.032 0-5.198 1.083-2.166 1.083-3.52 3.032-1.353 1.95-1.948 4.602-.65 2.653-.65 5.685 0 6.876 3.411 10.666 3.41 3.736 9.096 3.736 2.923 0 4.818-.27 1.95-.272 3.032-.596zm0-31.51V16.246l7.039-1.245v57.715q-2.437.65-6.227 1.353-3.79.704-8.716.704-4.548 0-8.176-1.462-3.627-1.462-6.226-4.114-2.599-2.653-4.007-6.443-1.353-3.844-1.353-8.609 0-4.548 1.137-8.338 1.191-3.79 3.465-6.55 2.274-2.708 5.577-4.224 3.302-1.516 7.525-1.516 3.411 0 6.01.92 2.653.921 3.952 1.733zM528.574 54.2q0-5.197 1.516-9.096 1.516-3.952 4.006-6.497 2.545-2.598 5.793-3.898 3.249-1.245 6.66-1.245 7.959 0 12.182 4.927 4.277 4.98 4.277 15.16v1.137q0 .758-.108 1.353h-26.963q.433 6.118 3.573 9.312 3.086 3.195 9.692 3.195 3.735 0 6.226-.65 2.545-.65 3.844-1.245l.975 5.901q-1.246.704-4.494 1.462-3.195.758-7.31.758-5.143 0-8.933-1.57-3.735-1.57-6.172-4.277-2.382-2.761-3.573-6.497-1.191-3.736-1.191-8.23zm7.525-3.844h19.546q.054-4.764-2.383-7.85-2.49-3.086-6.767-3.086-2.437 0-4.332.974-1.84.92-3.14 2.437-1.245 1.515-2.003 3.519-.704 1.949-.92 4.006zm46.237 18.408q4.332 0 6.39-1.137 2.11-1.137 2.11-3.627 0-2.599-2.057-4.115t-6.767-3.41q-2.274-.921-4.332-1.842-2.111-.974-3.627-2.22-1.516-1.299-2.437-3.14-.866-1.786-.866-4.44 0-5.251 3.844-8.337 3.844-3.032 10.558-3.032 1.624 0 3.302.162 1.679.217 3.14.488 1.408.216 2.491.541 1.137.325 1.733.542l-1.3 6.063q-1.137-.595-3.573-1.245-2.382-.65-5.793-.65-2.978 0-5.198 1.137-2.166 1.192-2.166 3.682 0 1.3.488 2.274.487 1.029 1.516 1.787 1.028.812 2.544 1.516 1.516.65 3.628 1.407 2.815 1.083 4.98 2.112 2.22 1.029 3.79 2.382 1.517 1.354 2.383 3.303.812 1.895.812 4.71 0 5.468-4.06 8.284-4.061 2.815-11.533 2.815-5.251 0-8.175-.92-2.978-.867-4.06-1.3l1.299-6.064q1.245.434 3.898 1.354 2.653.92 7.038.92zM0 0h23.994v58.007H0zm65.995 60.996H90V90H65.995zM0 66.796h23.994V90H0zM33.596 0H57.59v29.004H33.596zm0 37.793H57.59V90H33.596zM65.995 0H90v52.207H65.995z" fill="#fff"/></svg>